<svg xmlns="http://www.w3.org/2000/svg" xmlns:xlink="http://www.w3.org/1999/xlink" width="500" zoomAndPan="magnify" viewBox="0 0 375 374.999991" height="500" preserveAspectRatio="xMidYMid meet" version="1.0"><defs><g/><clipPath id="848c02d74d"><path d="M 64.664062 64.664062 L 310.335938 64.664062 L 310.335938 310.335938 L 64.664062 310.335938 Z M 64.664062 64.664062 " clip-rule="nonzero"/></clipPath><clipPath id="8a4e7bf81e"><path d="M 187.5 64.664062 C 119.660156 64.664062 64.664062 119.660156 64.664062 187.5 C 64.664062 255.339844 119.660156 310.335938 187.5 310.335938 C 255.339844 310.335938 310.335938 255.339844 310.335938 187.5 C 310.335938 119.660156 255.339844 64.664062 187.5 64.664062 " clip-rule="nonzero"/></clipPath><clipPath id="87d57e916a"><path d="M 71.800781 71.800781 L 303.199219 71.800781 L 303.199219 303.199219 L 71.800781 303.199219 Z M 71.800781 71.800781 " clip-rule="nonzero"/></clipPath><clipPath id="d484075487"><path d="M 187.5 71.800781 C 123.601562 71.800781 71.800781 123.601562 71.800781 187.5 C 71.800781 251.398438 123.601562 303.199219 187.5 303.199219 C 251.398438 303.199219 303.199219 251.398438 303.199219 187.5 C 303.199219 123.601562 251.398438 71.800781 187.5 71.800781 " clip-rule="nonzero"/></clipPath><clipPath id="3281abd2ca"><path d="M 135.660156 137 L 244.410156 137 L 244.410156 238.0625 L 135.660156 238.0625 Z M 135.660156 137 " clip-rule="nonzero"/></clipPath><clipPath id="77ce27e8ea"><path d="M 278.640625 187.5 L 288.082031 187.5 L 288.082031 196.941406 L 278.640625 196.941406 Z M 278.640625 187.5 " clip-rule="nonzero"/></clipPath><clipPath id="10317940a6"><path d="M 283.363281 187.5 C 280.753906 187.5 278.640625 189.613281 278.640625 192.222656 C 278.640625 194.828125 280.753906 196.941406 283.363281 196.941406 C 285.96875 196.941406 288.082031 194.828125 288.082031 192.222656 C 288.082031 189.613281 285.96875 187.5 283.363281 187.5 " clip-rule="nonzero"/></clipPath><clipPath id="8770770cd8"><path d="M 87.210938 187.5 L 96.652344 187.5 L 96.652344 196.941406 L 87.210938 196.941406 Z M 87.210938 187.5 " clip-rule="nonzero"/></clipPath><clipPath id="d2cff98eeb"><path d="M 91.929688 187.5 C 89.324219 187.5 87.210938 189.613281 87.210938 192.222656 C 87.210938 194.828125 89.324219 196.941406 91.929688 196.941406 C 94.539062 196.941406 96.652344 194.828125 96.652344 192.222656 C 96.652344 189.613281 94.539062 187.5 91.929688 187.5 " clip-rule="nonzero"/></clipPath><clipPath id="d3744d8aa5"><path d="M 111.652344 111.652344 L 263.152344 111.652344 L 263.152344 263.152344 L 111.652344 263.152344 Z M 111.652344 111.652344 " clip-rule="nonzero"/></clipPath></defs><g clip-path="url(#848c02d74d)"><g clip-path="url(#8a4e7bf81e)"><path fill="#000000" d="M 64.664062 64.664062 L 310.335938 64.664062 L 310.335938 310.335938 L 64.664062 310.335938 Z M 64.664062 64.664062 " fill-opacity="1" fill-rule="nonzero"/></g></g><g clip-path="url(#87d57e916a)"><g clip-path="url(#d484075487)"><path fill="#ffffff" d="M 71.800781 71.800781 L 303.199219 71.800781 L 303.199219 303.199219 L 71.800781 303.199219 Z M 71.800781 71.800781 " fill-opacity="1" fill-rule="nonzero"/></g></g><g clip-path="url(#3281abd2ca)"><path fill="#ffbd59" d="M 157.296875 174.953125 C 157.003906 174.878906 156.6875 174.792969 156.351562 174.703125 C 151.132812 173.320312 146.046875 171.664062 140.792969 170.324219 C 137.976562 169.605469 135.660156 169.132812 135.847656 165.925781 C 135.949219 164.140625 136.847656 163.796875 137.644531 162.777344 C 138.566406 161.59375 138.542969 161.234375 138.683594 159.75 C 138.96875 156.761719 139.546875 155.023438 142.054688 153.332031 C 143.292969 152.496094 143.714844 152.28125 144.292969 150.933594 C 144.816406 149.707031 144.691406 148.144531 145.445312 147.039062 C 146.851562 144.984375 149.449219 145.515625 151.304688 144.203125 C 153.273438 142.8125 153.800781 140.105469 156.40625 139.589844 C 159.058594 139.066406 160.785156 140.367188 163.398438 138.703125 C 166.054688 137.015625 167.5625 136.835938 170.699219 137.804688 C 172.277344 138.292969 173.546875 138.96875 175.226562 138.707031 C 176.683594 138.484375 177.789062 137.824219 179.257812 137.890625 C 181.675781 138 184.855469 138.386719 186.875 142.839844 C 187.839844 145.566406 191.320312 142.382812 193.160156 143.988281 C 194.113281 144.820312 193.695312 146.175781 194.082031 147.113281 C 194.777344 148.792969 196.339844 149.414062 198.058594 150.011719 C 199.90625 150.652344 201.308594 150.742188 202.289062 152.65625 C 203.226562 154.496094 202.121094 155.738281 202.292969 157.574219 C 202.625 161.09375 207.695312 161.257812 206.996094 165.425781 C 206.738281 166.957031 205.476562 168.1875 205.730469 169.738281 C 206.015625 171.46875 208.132812 172.160156 208.367188 173.882812 C 208.867188 177.527344 204.609375 179.992188 201.921875 180.992188 C 196.554688 182.992188 191.539062 182.011719 186.417969 180.554688 C 182.820312 179.773438 179.21875 178.835938 175.734375 178.292969 C 169.59375 177.34375 163.53125 176.542969 157.46875 174.996094 C 157.410156 174.980469 157.355469 174.964844 157.296875 174.953125 Z M 243.175781 210.5625 C 242.632812 209.242188 243.140625 207.921875 242.347656 206.691406 C 241.339844 205.132812 239.179688 205.367188 238.144531 203.996094 C 237.226562 202.785156 237.679688 200.730469 236.675781 199.480469 C 235.339844 197.820312 232.597656 197.890625 231.230469 196.300781 C 229.921875 194.777344 230.257812 192.316406 229.144531 190.644531 C 227.984375 188.898438 226.417969 188.746094 224.460938 189.007812 C 222.199219 189.308594 220.851562 189.761719 219.0625 188.261719 C 218.078125 187.4375 217.101562 186.53125 215.722656 186.4375 C 212.453125 186.210938 211.871094 189.804688 209.070312 190.292969 C 207.492188 190.566406 206.171875 189.558594 204.699219 189.140625 C 202.914062 188.636719 201.265625 188.839844 199.703125 189.898438 C 198.464844 190.734375 197.796875 192.3125 196.492188 193.039062 C 195.085938 193.820312 193.457031 193.539062 191.914062 193.507812 C 188.03125 193.433594 186.269531 196.050781 184.882812 199.171875 C 183.453125 202.398438 179.828125 202.289062 177.851562 204.609375 C 176.242188 206.496094 178.105469 209.402344 177.28125 211.5625 C 176.578125 213.386719 174.167969 213.855469 174.328125 216.136719 C 174.472656 218.234375 176.09375 220.535156 174.976562 222.53125 C 174.046875 224.195312 171.917969 224.515625 172.304688 226.9375 C 172.484375 228.066406 173.066406 228.511719 173.625 229.398438 C 174.21875 230.351562 174.042969 230.847656 173.933594 231.839844 C 173.746094 233.527344 173.703125 235.902344 175.109375 237.160156 C 175.8125 237.792969 176.613281 238.042969 177.523438 238.039062 C 178.382812 238.035156 179.132812 237.921875 179.859375 237.660156 C 179.980469 237.722656 180.078125 237.757812 180.136719 237.742188 C 183.261719 236.9375 184.203125 236.101562 186.628906 235.347656 C 190 234.300781 193.230469 232.851562 196.554688 231.660156 C 201.042969 230.050781 205.527344 228.355469 210.113281 227.066406 C 216.277344 225.332031 222.242188 223.4375 228.46875 221.84375 C 230.785156 221.253906 234.273438 220.582031 237.039062 219.371094 C 238.410156 218.851562 239.625 218.226562 240.875 217.277344 C 242.105469 216.34375 243.164062 215.457031 243.789062 213.917969 C 244.402344 212.402344 243.683594 211.800781 243.175781 210.5625 Z M 243.175781 210.5625 " fill-opacity="1" fill-rule="nonzero"/></g><path fill="#c18e41" d="M 143.0625 163.777344 C 141.847656 163.53125 140.808594 162.914062 139.625 162.660156 C 139.550781 162.011719 139.691406 161.40625 139.871094 160.824219 C 140.773438 160.890625 141.449219 161.585938 142.199219 162 C 142.796875 162.328125 144.226562 162.628906 144.667969 163.105469 C 145.75 164.28125 143.75 163.914062 143.0625 163.777344 Z M 144.042969 153.253906 C 144.941406 153.425781 145.820312 154.152344 146.683594 154.503906 C 147.410156 154.804688 148.160156 155.054688 148.9375 155.210938 C 149.15625 154.332031 146.898438 152.40625 146.117188 151.96875 C 145.644531 151.699219 144.929688 151.320312 144.488281 151.78125 C 144.476562 151.792969 143.980469 152.703125 143.988281 152.679688 C 143.898438 153.039062 143.882812 153.320312 144.042969 153.253906 Z M 150.449219 145.964844 C 151.816406 146.109375 152.125 148.945312 153.472656 149.316406 C 153.628906 148.355469 152.972656 146.808594 152.566406 145.929688 C 152.339844 145.433594 152.035156 144.648438 151.390625 144.742188 C 150.996094 144.800781 150.1875 145.445312 150.195312 145.886719 C 150.398438 146.027344 150.601562 146.078125 150.449219 145.964844 Z M 161.449219 144.929688 C 162.199219 145.769531 162.203125 144.261719 162.199219 143.710938 C 162.199219 142.804688 161.863281 141.617188 162.167969 140.75 C 161.867188 140.527344 160.402344 140.570312 160.085938 140.917969 C 159.632812 141.414062 160.445312 142.335938 160.632812 142.804688 C 160.867188 143.402344 161.011719 144.4375 161.449219 144.929688 Z M 172.132812 143.21875 C 172.066406 143.339844 172.046875 143.550781 172.023438 143.683594 C 172.523438 143.878906 172.859375 142.550781 172.984375 142.140625 C 173.164062 141.566406 173.425781 140.847656 173.46875 140.25 C 173.511719 139.71875 173.632812 139.871094 173.203125 139.605469 C 173.019531 139.492188 172.496094 139.378906 172.304688 139.460938 C 171.179688 139.941406 172.5 142.339844 172.132812 143.21875 Z M 186.894531 146.320312 C 187.285156 145.839844 187.484375 145.460938 187.136719 144.941406 C 186.941406 144.648438 185.976562 143.96875 186.1875 144.359375 C 185.484375 145.734375 184.65625 146.949219 184.347656 148.484375 C 184.988281 148.789062 186.507812 146.800781 186.894531 146.320312 Z M 192.859375 151.257812 C 193.464844 150.914062 194.558594 150.414062 194.363281 149.550781 C 194.046875 149.398438 193.15625 148.351562 193.074219 148.992188 C 192.054688 149.941406 191.039062 151.347656 190.511719 152.574219 C 191.03125 152.78125 192.375 151.53125 192.859375 151.257812 Z M 200.351562 160.78125 C 200.761719 160.566406 201.164062 160.339844 201.320312 159.878906 C 201.464844 159.46875 201.429688 158.667969 200.683594 158.707031 C 199.847656 158.835938 199.117188 159.816406 198.492188 160.335938 C 198.007812 160.742188 197.160156 161.191406 197 161.859375 C 197.878906 162.183594 199.546875 161.199219 200.351562 160.78125 Z M 200.5625 171.285156 C 201.378906 171.199219 202.015625 171.238281 202.835938 171.417969 C 203.644531 171.59375 204.46875 171.625 204.566406 170.566406 C 204.597656 170.226562 204.066406 168.519531 203.796875 169.074219 C 202.753906 169.539062 201.652344 169.828125 200.597656 170.25 C 199.5625 170.664062 199.167969 171.433594 200.5625 171.285156 Z M 184.066406 151.804688 C 188.765625 154.636719 191.355469 157.546875 193.351562 162.621094 C 194.332031 165.109375 194.179688 167.53125 194.714844 170.113281 C 195.015625 171.5625 195.730469 175.644531 196.964844 176.195312 C 197.238281 171.710938 196.914062 165.429688 195.390625 161.140625 C 193.796875 156.667969 189.050781 153.339844 185.4375 150.832031 C 181.683594 148.230469 177.132812 146.234375 172.441406 146.074219 C 166.777344 145.878906 161.128906 146.945312 156.445312 150.773438 C 151.273438 155 145.949219 161.410156 144.160156 168.292969 C 145.742188 168.179688 145.421875 166.949219 146.113281 165.589844 C 146.898438 164.054688 148.132812 162.515625 149.167969 161.140625 C 151.191406 158.445312 152.71875 154.917969 154.820312 152.492188 C 156.519531 150.535156 160.644531 150.125 163.019531 149.039062 C 165.023438 148.125 168.480469 146.726562 170.671875 146.726562 C 172.882812 146.730469 175.09375 148.1875 177.082031 148.800781 C 179.792969 149.632812 181.667969 150.359375 184.066406 151.804688 Z M 160.0625 166.0625 C 159.59375 166.105469 159.289062 165.925781 158.976562 166.332031 C 158.714844 166.667969 158.859375 167.707031 158.816406 168.066406 L 158.960938 168.035156 C 159.253906 168.386719 159.675781 168.742188 159.898438 169.242188 C 160.65625 168.273438 159.730469 167.132812 160.0625 166.0625 Z M 174.25 164.1875 C 174.019531 163.367188 172.515625 164.082031 172.0625 164.46875 C 172.691406 165.585938 174.09375 165.34375 175.070312 164.863281 C 174.925781 164.515625 174.621094 164.269531 174.25 164.1875 Z M 182.132812 175.566406 C 181.78125 174.691406 180.132812 174.855469 180.617188 176 L 180.460938 175.867188 C 180.609375 176.273438 180.75 176.664062 180.613281 177.089844 C 181.0625 176.648438 182.523438 176.53125 182.132812 175.566406 Z M 174.386719 228.730469 C 174.4375 229.460938 175.128906 230.15625 175.355469 230.96875 C 175.488281 230.992188 175.621094 231.011719 175.476562 230.964844 C 176.796875 230.460938 180.304688 230.667969 180.847656 229.078125 C 179.390625 228.570312 175.882812 228.203125 174.386719 228.730469 Z M 178.847656 220.371094 C 176.984375 219.457031 176.894531 220.722656 176.644531 222.046875 C 177.242188 222.9375 181.546875 223.289062 182.714844 222.871094 C 182.433594 222.085938 179.699219 220.789062 178.847656 220.371094 Z M 178.597656 212.546875 L 178.628906 212.664062 C 179.757812 212.871094 180.5625 213.792969 181.75 213.972656 C 181.609375 212.332031 178.414062 209.4375 178.597656 212.546875 Z M 186.796875 206.105469 C 186.003906 204.804688 186.28125 202.691406 185.324219 201.457031 C 184.234375 201.476562 183.476562 202.738281 182.921875 203.449219 L 183.046875 203.414062 C 182.96875 203.714844 186.25 206.285156 186.796875 206.105469 Z M 194.59375 194.867188 C 194.648438 194.828125 194.710938 194.796875 194.769531 194.765625 C 194.78125 194.738281 194.796875 194.710938 194.8125 194.683594 Z M 196.96875 198.800781 C 197.585938 198.320312 197.511719 194.898438 197.179688 194.09375 C 196.464844 194.429688 195.464844 194.398438 194.769531 194.765625 C 194.335938 195.769531 196.523438 197.917969 196.96875 198.800781 Z M 208.480469 196.339844 C 209.515625 195.984375 210.476562 192.039062 210.136719 191.011719 C 209.25 191.203125 208.773438 191.269531 208.050781 191.039062 C 208.074219 191.230469 208.117188 191.433594 208.179688 191.621094 C 207.863281 193.160156 208.011719 194.855469 208.480469 196.339844 Z M 219.714844 192.449219 C 220.171875 191.5 221.191406 189.558594 219.28125 190.664062 C 218.351562 191.285156 218.117188 194.792969 218.242188 195.863281 C 219.074219 195.351562 219.273438 193.359375 219.714844 192.449219 Z M 230.253906 197.929688 C 230.328125 197.308594 229.738281 196.144531 229.292969 195.816406 C 228.25 196.269531 227.898438 197.804688 227.339844 198.695312 C 226.664062 199.769531 225.855469 200.765625 225.710938 202.046875 C 226.835938 201.390625 227.753906 200.109375 228.863281 199.34375 C 229.488281 198.910156 230.148438 198.777344 230.253906 197.929688 Z M 237.722656 205.179688 C 237.449219 204.730469 236.191406 203.417969 235.820312 204.53125 C 234.078125 204.785156 232.078125 207.324219 231.617188 208.882812 C 232.769531 208.675781 233.109375 208.078125 234.082031 207.632812 C 234.984375 207.21875 236.113281 207.273438 237.027344 206.882812 C 238.207031 206.375 238.269531 206.082031 237.722656 205.179688 Z M 242.03125 210.050781 C 241.648438 209.964844 241.378906 210.066406 241.167969 210.25 L 241.199219 210.371094 C 240.273438 210.265625 239.011719 211.394531 238.289062 211.90625 C 237.3125 212.601562 236.6875 213.386719 238.4375 213.109375 C 239.503906 212.9375 240.953125 212.609375 241.941406 212.207031 C 243.648438 211.511719 242.144531 211.277344 242.03125 210.050781 Z M 232.992188 212.683594 C 230.796875 209.53125 227.308594 207.328125 225.253906 203.964844 C 224.203125 202.246094 223.417969 201.335938 221.429688 200.535156 C 219.609375 199.800781 218.1875 198.75 216.230469 198.269531 C 211.945312 197.21875 207.726562 196.746094 203.277344 198.101562 C 201.164062 198.742188 198.816406 199.40625 197 200.601562 C 194.917969 201.972656 192.984375 204.449219 191.226562 206.28125 C 188.339844 209.28125 185.753906 212.875 185.554688 217.039062 C 185.441406 219.335938 185.148438 221.6875 185.097656 223.972656 C 185.042969 226.417969 185.632812 229.152344 184.765625 231.535156 C 184.574219 232.050781 183.914062 232.667969 184.675781 233.683594 C 186.066406 233.738281 186.085938 231.335938 186.203125 230.410156 C 186.378906 229.003906 186.09375 227.683594 186.328125 226.269531 C 186.613281 224.542969 186.589844 222.890625 186.34375 221.152344 C 185.933594 218.253906 186.539062 215.878906 187.339844 213.078125 C 187.777344 211.542969 188.917969 210.589844 189.972656 209.355469 C 191.054688 208.085938 192.066406 206.769531 193.226562 205.554688 C 195.453125 203.222656 198.746094 201.152344 201.636719 199.757812 C 206.78125 197.273438 213.648438 198.085938 218.53125 200.507812 C 221.074219 201.765625 223.222656 204.03125 225.050781 206.136719 C 226.515625 207.832031 227.933594 209.183594 229.574219 210.652344 C 230.523438 211.507812 231.339844 212.546875 232.175781 213.519531 C 232.964844 214.433594 233.511719 216.210938 234.476562 216.875 C 235.773438 217.777344 235.160156 216.257812 234.753906 215.382812 C 234.292969 214.390625 233.625 213.59375 232.992188 212.683594 Z M 199.351562 224.183594 C 198.828125 224.597656 199.15625 225.621094 199.351562 226.214844 C 200.242188 225.980469 201.082031 225.167969 201.121094 224.265625 C 201.179688 223.007812 199.972656 222.59375 199.878906 221.535156 C 199.496094 221.878906 199.371094 223.484375 199.351562 224.183594 Z M 216.164062 216.394531 C 215.199219 216.273438 213.140625 218.058594 213.5625 219.1875 C 213.65625 219.4375 214.152344 219.53125 214.3125 219.777344 C 214.507812 220.078125 214.535156 220.585938 214.644531 220.925781 C 215.9375 220.65625 216.488281 219.921875 217.226562 218.871094 C 217.589844 218.351562 219.191406 216.667969 219.011719 216.195312 C 218.011719 216.398438 216.792969 217.054688 216.164062 216.394531 Z M 211.140625 208.324219 C 210.8125 208.714844 210.066406 209.371094 210.003906 209.871094 L 210.125 209.945312 C 211.257812 210.9375 213.09375 208.613281 212.636719 207.652344 C 211.78125 207.46875 211.617188 207.761719 211.140625 208.324219 Z M 227.242188 216.886719 C 227.195312 217.277344 227.296875 217.675781 227.425781 218.066406 L 227.71875 217.992188 C 227.960938 218.5 228.660156 218.902344 229.175781 218.847656 C 229.207031 218.113281 228.0625 216.460938 227.242188 216.886719 Z M 227.242188 216.886719 " fill-opacity="1" fill-rule="nonzero"/><g fill="#000000" fill-opacity="1"><g transform="translate(110.504086, 146.193042)"><g><path d="M -4.980469 -28.699219 L 2.800781 -14.8125 L -12.769531 -17.992188 L -15.699219 -13.960938 L 1.210938 -1.664062 L 3.914062 -5.382812 L -6.175781 -12.71875 L 7.234375 -9.949219 L 8.792969 -12.089844 L 2.074219 -24 L 12.132812 -16.683594 L 14.839844 -20.402344 L -2.070312 -32.703125 Z M -4.980469 -28.699219 "/></g></g></g><g fill="#000000" fill-opacity="1"><g transform="translate(125.741623, 125.721383)"><g><path d="M 11.453125 -9.445312 L 15.242188 -12.570312 L -3.867188 -23.914062 L -7.847656 -20.628906 L -0.347656 0.289062 L 3.441406 -2.839844 L 1.929688 -6.695312 L 7.953125 -11.664062 Z M 0.433594 -10.429688 L -2.773438 -18.535156 L 4.570312 -13.84375 Z M 0.433594 -10.429688 "/></g></g></g><g fill="#000000" fill-opacity="1"><g transform="translate(139.460684, 114.26142)"><g><path d="M 7.464844 -13.652344 C 9.316406 -15.453125 9.785156 -18.296875 8.457031 -20.828125 C 6.800781 -23.972656 3.128906 -25.269531 -0.046875 -23.597656 L -7.914062 -19.460938 L 1.820312 -0.957031 L 5.890625 -3.097656 L 2.128906 -10.253906 L 3.761719 -11.113281 L 12.089844 -6.359375 L 16.65625 -8.757812 Z M 3.535156 -15.285156 L 0.359375 -13.613281 L -1.945312 -17.996094 L 1.234375 -19.664062 C 2.527344 -20.347656 3.972656 -19.925781 4.636719 -18.660156 C 5.316406 -17.363281 4.832031 -15.96875 3.535156 -15.285156 Z M 3.535156 -15.285156 "/></g></g></g><g fill="#000000" fill-opacity="1"><g transform="translate(155.121853, 106.338007)"><g><path d="M 2.105469 -0.730469 L 6.453125 -2.242188 L -0.410156 -21.992188 L -4.753906 -20.480469 Z M 2.105469 -0.730469 "/></g></g></g><g fill="#000000" fill-opacity="1"><g transform="translate(162.492231, 103.273682)"><g><path d="M 14.601562 -2.671875 L 19.4375 -3.554688 L 8.269531 -22.769531 L 3.195312 -21.839844 L -0.445312 0.0820312 L 4.386719 -0.804688 L 4.945312 -4.90625 L 12.625 -6.3125 Z M 5.457031 -8.898438 L 6.605469 -17.539062 L 10.734375 -9.863281 Z M 5.457031 -8.898438 "/></g></g></g><g fill="#000000" fill-opacity="1"><g transform="translate(180.461013, 100.320022)"><g/></g></g><g fill="#000000" fill-opacity="1"><g transform="translate(187.532276, 99.061709)"><g><path d="M 23.386719 -17.367188 L 14.484375 -4.167969 L 10.316406 -19.5 L 5.398438 -20.304688 L 2.027344 0.332031 L 6.570312 1.074219 L 8.578125 -11.238281 L 12.140625 1.984375 L 14.753906 2.410156 L 22.363281 -8.953125 L 20.359375 3.324219 L 24.898438 4.066406 L 28.269531 -16.566406 Z M 23.386719 -17.367188 "/></g></g></g><g fill="#000000" fill-opacity="1"><g transform="translate(212.670756, 103.454165)"><g><path d="M 13.589844 5.972656 L 18.085938 7.953125 L 19.613281 -14.21875 L 14.890625 -16.292969 L -0.414062 -0.183594 L 4.082031 1.796875 L 6.847656 -1.289062 L 13.992188 1.851562 Z M 9.507812 -4.308594 L 15.300781 -10.820312 L 14.421875 -2.148438 Z M 9.507812 -4.308594 "/></g></g></g><g fill="#000000" fill-opacity="1"><g transform="translate(229.081213, 110.543344)"><g><path d="M 15.550781 0.523438 C 17.992188 1.363281 20.746094 0.503906 22.402344 -1.824219 C 24.46875 -4.71875 23.972656 -8.582031 21.050781 -10.664062 L 13.816406 -15.828125 L 1.671875 1.195312 L 5.417969 3.867188 L 10.113281 -2.714844 L 11.617188 -1.644531 L 11.121094 7.933594 L 15.320312 10.929688 Z M 15.242188 -3.722656 L 12.320312 -5.808594 L 15.191406 -9.835938 L 18.113281 -7.75 C 19.304688 -6.902344 19.578125 -5.421875 18.75 -4.261719 C 17.898438 -3.070312 16.433594 -2.875 15.242188 -3.722656 Z M 15.242188 -3.722656 "/></g></g></g><g fill="#000000" fill-opacity="1"><g transform="translate(243.176231, 120.671036)"><g><path d="M 25.417969 -3.828125 L 14.886719 -14.683594 L 11.960938 -11.84375 L 15.648438 -8.042969 L 3.566406 3.675781 L 6.746094 6.953125 L 18.824219 -4.765625 L 22.488281 -0.988281 Z M 25.417969 -3.828125 "/></g></g></g><g fill="#000000" fill-opacity="1"><g transform="translate(252.81085, 130.136419)"><g><path d="M 8.203125 12.371094 L 10.921875 16.464844 L 24.183594 -1.363281 L 21.335938 -5.660156 L -0.25 -0.378906 L 2.464844 3.71875 L 6.460938 2.613281 L 10.773438 9.121094 Z M 10.328125 1.511719 L 18.722656 -0.835938 L 13.292969 5.984375 Z M 10.328125 1.511719 "/></g></g></g><g fill="#000000" fill-opacity="1"><g transform="translate(95.536192, 219.513008)"><g><path d="M 0.40625 1.171875 C 0.375 1.085938 0.375 1.007812 0.40625 0.9375 C 0.445312 0.863281 0.515625 0.8125 0.609375 0.78125 L 8.390625 -1.921875 C 8.472656 -1.953125 8.550781 -1.953125 8.625 -1.921875 C 8.695312 -1.890625 8.75 -1.832031 8.78125 -1.75 L 10.671875 3.6875 C 10.703125 3.78125 10.695312 3.863281 10.65625 3.9375 C 10.625 4.007812 10.566406 4.0625 10.484375 4.09375 L 9.53125 4.421875 C 9.445312 4.453125 9.363281 4.453125 9.28125 4.421875 C 9.195312 4.390625 9.140625 4.328125 9.109375 4.234375 L 7.765625 0.359375 L 5.90625 1 L 7.171875 4.609375 C 7.191406 4.703125 7.179688 4.785156 7.140625 4.859375 C 7.109375 4.929688 7.046875 4.984375 6.953125 5.015625 L 6.078125 5.328125 C 5.992188 5.359375 5.910156 5.359375 5.828125 5.328125 C 5.753906 5.296875 5.707031 5.234375 5.6875 5.140625 L 4.421875 1.53125 L 2.5 2.1875 L 3.875 6.15625 C 3.90625 6.238281 3.90625 6.316406 3.875 6.390625 C 3.84375 6.472656 3.78125 6.53125 3.6875 6.5625 L 2.734375 6.890625 C 2.640625 6.921875 2.554688 6.914062 2.484375 6.875 C 2.410156 6.84375 2.359375 6.785156 2.328125 6.703125 Z M 0.40625 1.171875 "/></g></g></g><g fill="#000000" fill-opacity="1"><g transform="translate(100.703765, 233.036505)"><g><path d="M 0.59375 1.09375 C 0.550781 1.007812 0.539062 0.929688 0.5625 0.859375 C 0.59375 0.785156 0.648438 0.722656 0.734375 0.671875 L 7.96875 -3.25 C 8.039062 -3.300781 8.117188 -3.316406 8.203125 -3.296875 C 8.285156 -3.273438 8.347656 -3.222656 8.390625 -3.140625 L 8.96875 -2.078125 C 9.03125 -1.972656 9.046875 -1.875 9.015625 -1.78125 C 8.984375 -1.695312 8.953125 -1.640625 8.921875 -1.609375 L 6.28125 2.515625 L 11.171875 2.515625 C 11.210938 2.503906 11.273438 2.507812 11.359375 2.53125 C 11.453125 2.5625 11.53125 2.628906 11.59375 2.734375 L 12.15625 3.78125 C 12.195312 3.863281 12.203125 3.941406 12.171875 4.015625 C 12.148438 4.097656 12.101562 4.164062 12.03125 4.21875 L 4.796875 8.140625 C 4.710938 8.191406 4.628906 8.203125 4.546875 8.171875 C 4.460938 8.148438 4.398438 8.097656 4.359375 8.015625 L 3.734375 6.875 C 3.703125 6.800781 3.695312 6.722656 3.71875 6.640625 C 3.738281 6.566406 3.789062 6.503906 3.875 6.453125 L 8.359375 4.015625 L 4.953125 4.046875 C 4.867188 4.035156 4.78125 4.019531 4.6875 4 C 4.601562 3.976562 4.535156 3.910156 4.484375 3.796875 L 4.203125 3.28125 C 4.148438 3.1875 4.132812 3.09375 4.15625 3 C 4.1875 2.914062 4.21875 2.832031 4.25 2.75 L 6.125 -0.078125 L 1.640625 2.359375 C 1.554688 2.410156 1.472656 2.421875 1.390625 2.390625 C 1.316406 2.367188 1.257812 2.316406 1.21875 2.234375 Z M 0.59375 1.09375 "/></g></g></g><g fill="#000000" fill-opacity="1"><g transform="translate(109.29486, 247.540104)"><g><path d="M 0.765625 0.96875 C 0.710938 0.90625 0.691406 0.832031 0.703125 0.75 C 0.710938 0.664062 0.753906 0.597656 0.828125 0.546875 L 7.3125 -4.53125 C 7.382812 -4.582031 7.460938 -4.601562 7.546875 -4.59375 C 7.628906 -4.59375 7.695312 -4.5625 7.75 -4.5 L 9.890625 -1.75 C 10.304688 -1.21875 10.585938 -0.6875 10.734375 -0.15625 C 10.878906 0.375 10.867188 0.878906 10.703125 1.359375 C 10.546875 1.847656 10.210938 2.285156 9.703125 2.671875 C 9.203125 3.066406 8.703125 3.285156 8.203125 3.328125 C 7.703125 3.367188 7.21875 3.25 6.75 2.96875 C 6.28125 2.6875 5.835938 2.28125 5.421875 1.75 L 4.375 0.40625 L 2.109375 2.1875 C 2.035156 2.238281 1.957031 2.257812 1.875 2.25 C 1.789062 2.238281 1.722656 2.195312 1.671875 2.125 Z M 5.578125 -0.578125 L 6.609375 0.75 C 6.867188 1.082031 7.15625 1.269531 7.46875 1.3125 C 7.789062 1.363281 8.109375 1.265625 8.421875 1.015625 C 8.734375 0.785156 8.910156 0.515625 8.953125 0.203125 C 9.003906 -0.109375 8.890625 -0.445312 8.609375 -0.8125 L 7.578125 -2.140625 Z M 5.578125 -0.578125 "/></g></g></g><g fill="#000000" fill-opacity="1"><g transform="translate(118.867008, 258.984975)"><g><path d="M 0.3125 0.28125 C 0.25 0.226562 0.21875 0.164062 0.21875 0.09375 C 0.21875 0.0195312 0.242188 -0.0351562 0.296875 -0.078125 C 0.316406 -0.109375 0.34375 -0.140625 0.375 -0.171875 L 8.140625 -4.078125 C 8.222656 -4.128906 8.316406 -4.148438 8.421875 -4.140625 C 8.523438 -4.140625 8.625 -4.097656 8.71875 -4.015625 L 9.90625 -2.90625 C 10 -2.820312 10.050781 -2.722656 10.0625 -2.609375 C 10.070312 -2.503906 10.054688 -2.410156 10.015625 -2.328125 L 6.65625 5.6875 C 6.644531 5.726562 6.628906 5.765625 6.609375 5.796875 C 6.554688 5.835938 6.488281 5.859375 6.40625 5.859375 C 6.332031 5.859375 6.269531 5.835938 6.21875 5.796875 L 5.25 4.890625 C 5.164062 4.804688 5.117188 4.722656 5.109375 4.640625 C 5.097656 4.554688 5.109375 4.488281 5.140625 4.4375 L 5.71875 3.046875 L 3.09375 0.609375 L 1.734375 1.265625 C 1.679688 1.296875 1.613281 1.3125 1.53125 1.3125 C 1.457031 1.3125 1.375 1.269531 1.28125 1.1875 Z M 4.5625 -0.265625 L 6.46875 1.5 L 8 -2.046875 Z M 4.5625 -0.265625 "/></g></g></g><g fill="#000000" fill-opacity="1"><g transform="translate(130.473382, 269.089077)"><g><path d="M 1.03125 0.6875 C 0.957031 0.632812 0.910156 0.566406 0.890625 0.484375 C 0.878906 0.410156 0.898438 0.332031 0.953125 0.25 L 5.53125 -6.59375 C 5.582031 -6.664062 5.648438 -6.710938 5.734375 -6.734375 C 5.816406 -6.753906 5.894531 -6.738281 5.96875 -6.6875 L 6.9375 -6.03125 C 7.039062 -5.96875 7.097656 -5.890625 7.109375 -5.796875 C 7.128906 -5.710938 7.132812 -5.660156 7.125 -5.640625 L 7 0.609375 L 9.875 -3.6875 C 9.925781 -3.757812 9.992188 -3.800781 10.078125 -3.8125 C 10.171875 -3.832031 10.253906 -3.816406 10.328125 -3.765625 L 11.40625 -3.046875 C 11.488281 -2.992188 11.535156 -2.925781 11.546875 -2.84375 C 11.554688 -2.757812 11.535156 -2.679688 11.484375 -2.609375 L 6.90625 4.234375 C 6.863281 4.304688 6.800781 4.351562 6.71875 4.375 C 6.632812 4.394531 6.550781 4.378906 6.46875 4.328125 L 5.5 3.671875 C 5.394531 3.597656 5.335938 3.519531 5.328125 3.4375 C 5.316406 3.351562 5.304688 3.296875 5.296875 3.265625 L 5.328125 -2.84375 L 2.546875 1.328125 C 2.492188 1.410156 2.425781 1.457031 2.34375 1.46875 C 2.269531 1.488281 2.195312 1.472656 2.125 1.421875 Z M 1.03125 0.6875 "/></g></g></g><g fill="#000000" fill-opacity="1"><g transform="translate(143.646723, 277.257296)"><g><path d="M 0.390625 0.171875 C 0.304688 0.140625 0.253906 0.0859375 0.234375 0.015625 C 0.222656 -0.0546875 0.226562 -0.117188 0.25 -0.171875 C 0.269531 -0.210938 0.289062 -0.242188 0.3125 -0.265625 L 6.453125 -6.4375 C 6.503906 -6.507812 6.578125 -6.5625 6.671875 -6.59375 C 6.773438 -6.625 6.890625 -6.613281 7.015625 -6.5625 L 8.484375 -5.890625 C 8.597656 -5.835938 8.675781 -5.757812 8.71875 -5.65625 C 8.769531 -5.5625 8.789062 -5.46875 8.78125 -5.375 L 8.109375 3.296875 C 8.117188 3.328125 8.113281 3.363281 8.09375 3.40625 C 8.070312 3.457031 8.019531 3.5 7.9375 3.53125 C 7.863281 3.5625 7.796875 3.5625 7.734375 3.53125 L 6.53125 2.984375 C 6.425781 2.929688 6.359375 2.863281 6.328125 2.78125 C 6.296875 2.707031 6.285156 2.644531 6.296875 2.59375 L 6.375 1.078125 L 3.125 -0.40625 L 2.0625 0.65625 C 2.019531 0.695312 1.957031 0.734375 1.875 0.765625 C 1.800781 0.796875 1.707031 0.785156 1.59375 0.734375 Z M 4.25 -1.703125 L 6.625 -0.625 L 6.921875 -4.46875 Z M 4.25 -1.703125 "/></g></g></g><g fill="#000000" fill-opacity="1"><g transform="translate(157.849021, 283.176237)"><g><path d="M 1.1875 0.328125 C 1.101562 0.304688 1.039062 0.257812 1 0.1875 C 0.96875 0.113281 0.960938 0.0351562 0.984375 -0.046875 L 3.171875 -7.984375 C 3.191406 -8.078125 3.234375 -8.144531 3.296875 -8.1875 C 3.367188 -8.238281 3.445312 -8.253906 3.53125 -8.234375 L 6.625 -7.390625 C 7.4375 -7.160156 8.082031 -6.84375 8.5625 -6.4375 C 9.039062 -6.03125 9.351562 -5.535156 9.5 -4.953125 C 9.65625 -4.378906 9.644531 -3.734375 9.46875 -3.015625 C 9.375 -2.660156 9.289062 -2.347656 9.21875 -2.078125 C 9.144531 -1.804688 9.054688 -1.492188 8.953125 -1.140625 C 8.710938 -0.398438 8.382812 0.179688 7.96875 0.609375 C 7.5625 1.035156 7.054688 1.296875 6.453125 1.390625 C 5.859375 1.484375 5.15625 1.414062 4.34375 1.1875 Z M 3.28125 -0.796875 L 4.71875 -0.40625 C 5.113281 -0.289062 5.457031 -0.257812 5.75 -0.3125 C 6.039062 -0.363281 6.285156 -0.503906 6.484375 -0.734375 C 6.691406 -0.972656 6.859375 -1.300781 6.984375 -1.71875 C 7.054688 -1.9375 7.117188 -2.140625 7.171875 -2.328125 C 7.234375 -2.523438 7.285156 -2.71875 7.328125 -2.90625 C 7.378906 -3.09375 7.429688 -3.304688 7.484375 -3.546875 C 7.648438 -4.160156 7.617188 -4.648438 7.390625 -5.015625 C 7.160156 -5.378906 6.738281 -5.644531 6.125 -5.8125 L 4.75 -6.1875 Z M 3.28125 -0.796875 "/></g></g></g><g fill="#000000" fill-opacity="1"><g transform="translate(172.876307, 286.762072)"><g><path d="M 0.421875 0.046875 C 0.335938 0.0351562 0.273438 0 0.234375 -0.0625 C 0.191406 -0.125 0.175781 -0.1875 0.1875 -0.25 C 0.1875 -0.289062 0.195312 -0.328125 0.21875 -0.359375 L 4.09375 -8.140625 C 4.125 -8.234375 4.179688 -8.304688 4.265625 -8.359375 C 4.347656 -8.421875 4.457031 -8.445312 4.59375 -8.4375 L 6.1875 -8.265625 C 6.320312 -8.242188 6.425781 -8.195312 6.5 -8.125 C 6.570312 -8.050781 6.617188 -7.960938 6.640625 -7.859375 L 8.75 0.5625 C 8.757812 0.59375 8.765625 0.628906 8.765625 0.671875 C 8.753906 0.734375 8.71875 0.789062 8.65625 0.84375 C 8.59375 0.894531 8.523438 0.914062 8.453125 0.90625 L 7.125 0.765625 C 7.007812 0.753906 6.921875 0.71875 6.859375 0.65625 C 6.804688 0.59375 6.78125 0.535156 6.78125 0.484375 L 6.390625 -0.984375 L 2.828125 -1.375 L 2.15625 -0.015625 C 2.125 0.0234375 2.078125 0.0703125 2.015625 0.125 C 1.953125 0.175781 1.859375 0.195312 1.734375 0.1875 Z M 3.5 -2.953125 L 6.09375 -2.671875 L 5.171875 -6.40625 Z M 3.5 -2.953125 "/></g></g></g><g fill="#000000" fill-opacity="1"><g transform="translate(188.20516, 287.885062)"><g><path d="M 4.125 -0.078125 C 3.320312 -0.0351562 2.640625 -0.117188 2.078125 -0.328125 C 1.523438 -0.535156 1.097656 -0.820312 0.796875 -1.1875 C 0.503906 -1.550781 0.34375 -1.953125 0.3125 -2.390625 C 0.300781 -2.460938 0.316406 -2.523438 0.359375 -2.578125 C 0.410156 -2.640625 0.476562 -2.671875 0.5625 -2.671875 L 1.921875 -2.734375 C 2.035156 -2.742188 2.117188 -2.726562 2.171875 -2.6875 C 2.234375 -2.644531 2.289062 -2.59375 2.34375 -2.53125 C 2.414062 -2.375 2.519531 -2.234375 2.65625 -2.109375 C 2.789062 -1.984375 2.972656 -1.878906 3.203125 -1.796875 C 3.429688 -1.722656 3.710938 -1.695312 4.046875 -1.71875 C 4.597656 -1.738281 5.007812 -1.84375 5.28125 -2.03125 C 5.550781 -2.226562 5.675781 -2.484375 5.65625 -2.796875 C 5.644531 -3.003906 5.5625 -3.171875 5.40625 -3.296875 C 5.25 -3.429688 5.007812 -3.546875 4.6875 -3.640625 C 4.375 -3.734375 3.945312 -3.820312 3.40625 -3.90625 C 2.769531 -4.019531 2.222656 -4.171875 1.765625 -4.359375 C 1.316406 -4.554688 0.96875 -4.820312 0.71875 -5.15625 C 0.476562 -5.488281 0.347656 -5.910156 0.328125 -6.421875 C 0.304688 -6.910156 0.425781 -7.359375 0.6875 -7.765625 C 0.945312 -8.179688 1.320312 -8.507812 1.8125 -8.75 C 2.3125 -9 2.914062 -9.144531 3.625 -9.1875 C 4.1875 -9.207031 4.6875 -9.148438 5.125 -9.015625 C 5.5625 -8.890625 5.929688 -8.710938 6.234375 -8.484375 C 6.535156 -8.253906 6.769531 -8.003906 6.9375 -7.734375 C 7.101562 -7.460938 7.191406 -7.195312 7.203125 -6.9375 C 7.210938 -6.875 7.191406 -6.8125 7.140625 -6.75 C 7.097656 -6.6875 7.035156 -6.65625 6.953125 -6.65625 L 5.546875 -6.578125 C 5.460938 -6.578125 5.382812 -6.59375 5.3125 -6.625 C 5.25 -6.65625 5.195312 -6.707031 5.15625 -6.78125 C 5.09375 -7.007812 4.929688 -7.195312 4.671875 -7.34375 C 4.421875 -7.488281 4.097656 -7.550781 3.703125 -7.53125 C 3.285156 -7.507812 2.957031 -7.414062 2.71875 -7.25 C 2.488281 -7.09375 2.382812 -6.863281 2.40625 -6.5625 C 2.414062 -6.363281 2.484375 -6.195312 2.609375 -6.0625 C 2.742188 -5.9375 2.957031 -5.820312 3.25 -5.71875 C 3.539062 -5.625 3.9375 -5.535156 4.4375 -5.453125 C 5.175781 -5.335938 5.78125 -5.179688 6.25 -4.984375 C 6.71875 -4.785156 7.070312 -4.523438 7.3125 -4.203125 C 7.550781 -3.878906 7.679688 -3.460938 7.703125 -2.953125 C 7.734375 -2.390625 7.597656 -1.898438 7.296875 -1.484375 C 7.003906 -1.066406 6.585938 -0.734375 6.046875 -0.484375 C 5.503906 -0.242188 4.863281 -0.109375 4.125 -0.078125 Z M 4.125 -0.078125 "/></g></g></g><g fill="#000000" fill-opacity="1"><g transform="translate(202.733235, 286.615949)"><g/></g></g><g fill="#000000" fill-opacity="1"><g transform="translate(211.707092, 284.841376)"><g><path d="M 4.28125 -1.1875 C 3.539062 -0.957031 2.863281 -0.882812 2.25 -0.96875 C 1.632812 -1.0625 1.109375 -1.304688 0.671875 -1.703125 C 0.242188 -2.109375 -0.0976562 -2.660156 -0.359375 -3.359375 C -0.460938 -3.679688 -0.570312 -4.03125 -0.6875 -4.40625 C -0.800781 -4.789062 -0.914062 -5.15625 -1.03125 -5.5 C -1.195312 -6.207031 -1.207031 -6.851562 -1.0625 -7.4375 C -0.925781 -8.019531 -0.628906 -8.519531 -0.171875 -8.9375 C 0.285156 -9.363281 0.878906 -9.691406 1.609375 -9.921875 C 2.171875 -10.085938 2.691406 -10.164062 3.171875 -10.15625 C 3.648438 -10.15625 4.085938 -10.070312 4.484375 -9.90625 C 4.890625 -9.75 5.234375 -9.523438 5.515625 -9.234375 C 5.804688 -8.953125 6.023438 -8.597656 6.171875 -8.171875 C 6.191406 -8.085938 6.179688 -8.015625 6.140625 -7.953125 C 6.109375 -7.898438 6.054688 -7.863281 5.984375 -7.84375 L 4.59375 -7.421875 C 4.5 -7.390625 4.414062 -7.382812 4.34375 -7.40625 C 4.28125 -7.425781 4.210938 -7.492188 4.140625 -7.609375 C 3.867188 -8.054688 3.566406 -8.316406 3.234375 -8.390625 C 2.910156 -8.472656 2.53125 -8.453125 2.09375 -8.328125 C 1.613281 -8.171875 1.269531 -7.910156 1.0625 -7.546875 C 0.851562 -7.191406 0.832031 -6.691406 1 -6.046875 C 1.175781 -5.378906 1.382812 -4.703125 1.625 -4.015625 C 1.84375 -3.390625 2.140625 -2.984375 2.515625 -2.796875 C 2.890625 -2.617188 3.316406 -2.609375 3.796875 -2.765625 C 4.234375 -2.890625 4.566406 -3.082031 4.796875 -3.34375 C 5.023438 -3.613281 5.125 -4.007812 5.09375 -4.53125 C 5.09375 -4.65625 5.113281 -4.742188 5.15625 -4.796875 C 5.195312 -4.859375 5.265625 -4.90625 5.359375 -4.9375 L 6.75 -5.359375 C 6.820312 -5.378906 6.890625 -5.375 6.953125 -5.34375 C 7.023438 -5.3125 7.070312 -5.257812 7.09375 -5.1875 C 7.21875 -4.757812 7.238281 -4.34375 7.15625 -3.9375 C 7.082031 -3.53125 6.921875 -3.144531 6.671875 -2.78125 C 6.429688 -2.425781 6.113281 -2.113281 5.71875 -1.84375 C 5.320312 -1.570312 4.84375 -1.351562 4.28125 -1.1875 Z M 4.28125 -1.1875 "/></g></g></g><g fill="#000000" fill-opacity="1"><g transform="translate(226.118758, 279.876725)"><g><path d="M 0.375 -0.1875 C 0.300781 -0.144531 0.226562 -0.140625 0.15625 -0.171875 C 0.09375 -0.203125 0.046875 -0.242188 0.015625 -0.296875 C 0.00390625 -0.335938 -0.00390625 -0.378906 -0.015625 -0.421875 L -0.90625 -9.0625 C -0.925781 -9.15625 -0.914062 -9.25 -0.875 -9.34375 C -0.84375 -9.445312 -0.765625 -9.523438 -0.640625 -9.578125 L 0.796875 -10.296875 C 0.921875 -10.359375 1.03125 -10.375 1.125 -10.34375 C 1.226562 -10.3125 1.316406 -10.265625 1.390625 -10.203125 L 7.671875 -4.203125 C 7.710938 -4.179688 7.738281 -4.148438 7.75 -4.109375 C 7.78125 -4.054688 7.78125 -3.988281 7.75 -3.90625 C 7.726562 -3.832031 7.6875 -3.78125 7.625 -3.75 L 6.4375 -3.171875 C 6.332031 -3.117188 6.238281 -3.101562 6.15625 -3.125 C 6.070312 -3.15625 6.015625 -3.1875 5.984375 -3.21875 L 4.875 -4.265625 L 1.65625 -2.6875 L 1.8125 -1.171875 C 1.8125 -1.117188 1.796875 -1.050781 1.765625 -0.96875 C 1.742188 -0.894531 1.675781 -0.828125 1.5625 -0.765625 Z M 1.359375 -4.359375 L 3.703125 -5.515625 L 0.9375 -8.1875 Z M 1.359375 -4.359375 "/></g></g></g><g fill="#000000" fill-opacity="1"><g transform="translate(239.663802, 272.611576)"><g><path d="M 3.453125 -2.265625 C 2.796875 -1.804688 2.175781 -1.515625 1.59375 -1.390625 C 1.007812 -1.265625 0.492188 -1.273438 0.046875 -1.421875 C -0.398438 -1.578125 -0.757812 -1.832031 -1.03125 -2.1875 C -1.070312 -2.25 -1.085938 -2.3125 -1.078125 -2.375 C -1.066406 -2.445312 -1.023438 -2.503906 -0.953125 -2.546875 L 0.15625 -3.328125 C 0.25 -3.398438 0.328125 -3.4375 0.390625 -3.4375 C 0.460938 -3.4375 0.539062 -3.421875 0.625 -3.390625 C 0.769531 -3.296875 0.929688 -3.234375 1.109375 -3.203125 C 1.285156 -3.171875 1.492188 -3.179688 1.734375 -3.234375 C 1.972656 -3.296875 2.226562 -3.421875 2.5 -3.609375 C 2.945312 -3.929688 3.234375 -4.242188 3.359375 -4.546875 C 3.484375 -4.847656 3.453125 -5.128906 3.265625 -5.390625 C 3.148438 -5.554688 2.992188 -5.648438 2.796875 -5.671875 C 2.597656 -5.691406 2.335938 -5.65625 2.015625 -5.5625 C 1.703125 -5.476562 1.289062 -5.332031 0.78125 -5.125 C 0.175781 -4.875 -0.363281 -4.707031 -0.84375 -4.625 C -1.320312 -4.539062 -1.75 -4.578125 -2.125 -4.734375 C -2.507812 -4.890625 -2.851562 -5.175781 -3.15625 -5.59375 C -3.4375 -6 -3.578125 -6.445312 -3.578125 -6.9375 C -3.578125 -7.425781 -3.4375 -7.90625 -3.15625 -8.375 C -2.875 -8.851562 -2.445312 -9.296875 -1.875 -9.703125 C -1.40625 -10.023438 -0.953125 -10.25 -0.515625 -10.375 C -0.078125 -10.5 0.328125 -10.546875 0.703125 -10.515625 C 1.085938 -10.484375 1.425781 -10.394531 1.71875 -10.25 C 2.007812 -10.113281 2.226562 -9.9375 2.375 -9.71875 C 2.414062 -9.65625 2.429688 -9.585938 2.421875 -9.515625 C 2.421875 -9.441406 2.390625 -9.382812 2.328125 -9.34375 L 1.15625 -8.515625 C 1.09375 -8.460938 1.019531 -8.429688 0.9375 -8.421875 C 0.863281 -8.421875 0.785156 -8.445312 0.703125 -8.5 C 0.523438 -8.65625 0.289062 -8.722656 0 -8.703125 C -0.28125 -8.691406 -0.585938 -8.570312 -0.921875 -8.34375 C -1.253906 -8.101562 -1.476562 -7.851562 -1.59375 -7.59375 C -1.707031 -7.332031 -1.671875 -7.078125 -1.484375 -6.828125 C -1.367188 -6.660156 -1.21875 -6.554688 -1.03125 -6.515625 C -0.851562 -6.472656 -0.613281 -6.488281 -0.3125 -6.5625 C -0.0195312 -6.644531 0.359375 -6.78125 0.828125 -6.96875 C 1.515625 -7.28125 2.109375 -7.476562 2.609375 -7.5625 C 3.117188 -7.644531 3.554688 -7.613281 3.921875 -7.46875 C 4.296875 -7.320312 4.628906 -7.039062 4.921875 -6.625 C 5.242188 -6.164062 5.394531 -5.679688 5.375 -5.171875 C 5.351562 -4.660156 5.175781 -4.15625 4.84375 -3.65625 C 4.519531 -3.15625 4.054688 -2.691406 3.453125 -2.265625 Z M 3.453125 -2.265625 "/></g></g></g><g fill="#000000" fill-opacity="1"><g transform="translate(251.380005, 263.746089)"><g><path d="M 0.890625 -0.859375 C 0.828125 -0.796875 0.753906 -0.765625 0.671875 -0.765625 C 0.585938 -0.773438 0.515625 -0.8125 0.453125 -0.875 L -5.25 -6.8125 C -5.3125 -6.882812 -5.34375 -6.960938 -5.34375 -7.046875 C -5.351562 -7.128906 -5.328125 -7.203125 -5.265625 -7.265625 L -1.109375 -11.25 C -1.046875 -11.320312 -0.96875 -11.351562 -0.875 -11.34375 C -0.789062 -11.332031 -0.71875 -11.289062 -0.65625 -11.21875 L 0.03125 -10.5 C 0.101562 -10.4375 0.140625 -10.363281 0.140625 -10.28125 C 0.140625 -10.195312 0.109375 -10.117188 0.046875 -10.046875 L -2.921875 -7.203125 L -1.5625 -5.78125 L 1.203125 -8.4375 C 1.273438 -8.5 1.347656 -8.53125 1.421875 -8.53125 C 1.503906 -8.53125 1.582031 -8.492188 1.65625 -8.421875 L 2.296875 -7.75 C 2.359375 -7.6875 2.390625 -7.609375 2.390625 -7.515625 C 2.398438 -7.429688 2.367188 -7.359375 2.296875 -7.296875 L -0.46875 -4.640625 L 0.9375 -3.1875 L 3.96875 -6.109375 C 4.039062 -6.171875 4.117188 -6.195312 4.203125 -6.1875 C 4.285156 -6.1875 4.359375 -6.148438 4.421875 -6.078125 L 5.125 -5.34375 C 5.1875 -5.28125 5.21875 -5.207031 5.21875 -5.125 C 5.21875 -5.050781 5.179688 -4.984375 5.109375 -4.921875 Z M 0.890625 -0.859375 "/></g></g></g><g fill="#000000" fill-opacity="1"><g transform="translate(261.457735, 253.40857)"><g><path d="M 0.75 -0.984375 C 0.695312 -0.910156 0.628906 -0.867188 0.546875 -0.859375 C 0.460938 -0.859375 0.382812 -0.882812 0.3125 -0.9375 L -6.234375 -5.9375 C -6.304688 -5.988281 -6.347656 -6.054688 -6.359375 -6.140625 C -6.378906 -6.222656 -6.363281 -6.300781 -6.3125 -6.375 L -4.265625 -9.0625 C -3.617188 -9.90625 -2.914062 -10.414062 -2.15625 -10.59375 C -1.40625 -10.78125 -0.671875 -10.597656 0.046875 -10.046875 C 0.535156 -9.671875 0.859375 -9.238281 1.015625 -8.75 C 1.171875 -8.257812 1.175781 -7.757812 1.03125 -7.25 L 4.640625 -6.765625 C 4.691406 -6.742188 4.734375 -6.71875 4.765625 -6.6875 C 4.816406 -6.65625 4.847656 -6.597656 4.859375 -6.515625 C 4.878906 -6.441406 4.867188 -6.378906 4.828125 -6.328125 L 3.96875 -5.1875 C 3.875 -5.070312 3.769531 -5.003906 3.65625 -4.984375 C 3.550781 -4.972656 3.460938 -4.976562 3.390625 -5 L 0.140625 -5.53125 L -0.78125 -4.3125 L 1.546875 -2.53125 C 1.617188 -2.476562 1.660156 -2.410156 1.671875 -2.328125 C 1.679688 -2.253906 1.660156 -2.175781 1.609375 -2.09375 Z M -2.0625 -5.296875 L -1.078125 -6.609375 C -0.804688 -6.960938 -0.6875 -7.289062 -0.71875 -7.59375 C -0.75 -7.894531 -0.914062 -8.160156 -1.21875 -8.390625 C -1.519531 -8.617188 -1.820312 -8.710938 -2.125 -8.671875 C -2.425781 -8.640625 -2.71875 -8.441406 -3 -8.078125 L -3.984375 -6.765625 Z M -2.0625 -5.296875 "/></g></g></g><g fill="#000000" fill-opacity="1"><g transform="translate(270.21483, 241.106751)"><g><path d="M 0.203125 -0.375 C 0.160156 -0.300781 0.101562 -0.253906 0.03125 -0.234375 C -0.0390625 -0.222656 -0.101562 -0.234375 -0.15625 -0.265625 C -0.1875 -0.285156 -0.21875 -0.304688 -0.25 -0.328125 L -6 -6.859375 C -6.070312 -6.910156 -6.117188 -6.988281 -6.140625 -7.09375 C -6.160156 -7.195312 -6.140625 -7.304688 -6.078125 -7.421875 L -5.3125 -8.84375 C -5.25 -8.957031 -5.171875 -9.03125 -5.078125 -9.0625 C -4.984375 -9.101562 -4.890625 -9.117188 -4.796875 -9.109375 L 3.8125 -7.875 C 3.851562 -7.882812 3.890625 -7.878906 3.921875 -7.859375 C 3.972656 -7.828125 4.007812 -7.769531 4.03125 -7.6875 C 4.0625 -7.613281 4.0625 -7.546875 4.03125 -7.484375 L 3.390625 -6.3125 C 3.335938 -6.21875 3.269531 -6.15625 3.1875 -6.125 C 3.101562 -6.09375 3.039062 -6.085938 3 -6.109375 L 1.484375 -6.296875 L -0.203125 -3.15625 L 0.796875 -2.015625 C 0.828125 -1.960938 0.851562 -1.894531 0.875 -1.8125 C 0.90625 -1.738281 0.890625 -1.648438 0.828125 -1.546875 Z M -1.421875 -4.34375 L -0.1875 -6.640625 L -4 -7.203125 Z M -1.421875 -4.34375 "/></g></g></g><g fill="#000000" fill-opacity="1"><g transform="translate(277.017671, 227.321441)"><g><path d="M 1.484375 -3.84375 C 1.222656 -3.082031 0.890625 -2.484375 0.484375 -2.046875 C 0.078125 -1.609375 -0.347656 -1.316406 -0.796875 -1.171875 C -1.253906 -1.035156 -1.6875 -1.035156 -2.09375 -1.171875 C -2.164062 -1.203125 -2.21875 -1.25 -2.25 -1.3125 C -2.289062 -1.375 -2.296875 -1.445312 -2.265625 -1.53125 L -1.828125 -2.8125 C -1.785156 -2.914062 -1.734375 -2.984375 -1.671875 -3.015625 C -1.609375 -3.054688 -1.535156 -3.09375 -1.453125 -3.125 C -1.285156 -3.132812 -1.117188 -3.175781 -0.953125 -3.25 C -0.796875 -3.332031 -0.632812 -3.460938 -0.46875 -3.640625 C -0.3125 -3.828125 -0.179688 -4.078125 -0.078125 -4.390625 C 0.109375 -4.910156 0.160156 -5.328125 0.078125 -5.640625 C 0.00390625 -5.960938 -0.175781 -6.175781 -0.46875 -6.28125 C -0.664062 -6.351562 -0.847656 -6.335938 -1.015625 -6.234375 C -1.191406 -6.140625 -1.382812 -5.960938 -1.59375 -5.703125 C -1.800781 -5.441406 -2.050781 -5.082031 -2.34375 -4.625 C -2.6875 -4.082031 -3.03125 -3.632812 -3.375 -3.28125 C -3.71875 -2.925781 -4.085938 -2.703125 -4.484375 -2.609375 C -4.890625 -2.515625 -5.332031 -2.550781 -5.8125 -2.71875 C -6.28125 -2.882812 -6.65625 -3.164062 -6.9375 -3.5625 C -7.226562 -3.957031 -7.394531 -4.425781 -7.4375 -4.96875 C -7.488281 -5.519531 -7.394531 -6.128906 -7.15625 -6.796875 C -6.96875 -7.328125 -6.726562 -7.773438 -6.4375 -8.140625 C -6.15625 -8.503906 -5.847656 -8.78125 -5.515625 -8.96875 C -5.191406 -9.164062 -4.867188 -9.289062 -4.546875 -9.34375 C -4.234375 -9.394531 -3.953125 -9.378906 -3.703125 -9.296875 C -3.640625 -9.273438 -3.585938 -9.226562 -3.546875 -9.15625 C -3.503906 -9.09375 -3.5 -9.023438 -3.53125 -8.953125 L -4 -7.609375 C -4.03125 -7.523438 -4.070312 -7.457031 -4.125 -7.40625 C -4.1875 -7.351562 -4.265625 -7.320312 -4.359375 -7.3125 C -4.585938 -7.34375 -4.816406 -7.265625 -5.046875 -7.078125 C -5.285156 -6.898438 -5.46875 -6.625 -5.59375 -6.25 C -5.726562 -5.863281 -5.765625 -5.53125 -5.703125 -5.25 C -5.648438 -4.976562 -5.476562 -4.789062 -5.1875 -4.6875 C -5 -4.625 -4.816406 -4.628906 -4.640625 -4.703125 C -4.460938 -4.773438 -4.273438 -4.925781 -4.078125 -5.15625 C -3.878906 -5.394531 -3.644531 -5.722656 -3.375 -6.140625 C -2.988281 -6.796875 -2.613281 -7.304688 -2.25 -7.671875 C -1.894531 -8.035156 -1.523438 -8.265625 -1.140625 -8.359375 C -0.753906 -8.460938 -0.320312 -8.429688 0.15625 -8.265625 C 0.6875 -8.078125 1.09375 -7.765625 1.375 -7.328125 C 1.65625 -6.898438 1.804688 -6.382812 1.828125 -5.78125 C 1.847656 -5.1875 1.734375 -4.539062 1.484375 -3.84375 Z M 1.484375 -3.84375 "/></g></g></g><g clip-path="url(#77ce27e8ea)"><g clip-path="url(#10317940a6)"><path fill="#000000" d="M 278.640625 187.5 L 288.082031 187.5 L 288.082031 196.941406 L 278.640625 196.941406 Z M 278.640625 187.5 " fill-opacity="1" fill-rule="nonzero"/></g></g><g clip-path="url(#8770770cd8)"><g clip-path="url(#d2cff98eeb)"><path fill="#000000" d="M 87.210938 187.5 L 96.652344 187.5 L 96.652344 196.941406 L 87.210938 196.941406 Z M 87.210938 187.5 " fill-opacity="1" fill-rule="nonzero"/></g></g><g clip-path="url(#d3744d8aa5)"><path fill="#192a27" d="M 146.113281 249.464844 C 145.867188 249.792969 145.496094 250 145.085938 250 C 144.835938 250 144.589844 249.917969 144.382812 249.792969 C 144.136719 249.628906 143.929688 249.464844 143.683594 249.300781 C 143.105469 248.886719 142.980469 248.144531 143.394531 247.570312 C 143.804688 246.992188 144.546875 246.867188 145.125 247.28125 C 145.332031 247.445312 145.578125 247.609375 145.785156 247.734375 C 146.363281 248.105469 146.527344 248.886719 146.113281 249.464844 Z M 138.242188 241.757812 C 137.746094 241.300781 136.964844 241.34375 136.511719 241.839844 C 136.054688 242.332031 136.097656 243.117188 136.59375 243.570312 C 136.796875 243.777344 137.003906 243.941406 137.210938 244.105469 C 137.457031 244.3125 137.746094 244.433594 138.035156 244.433594 C 138.363281 244.433594 138.734375 244.3125 138.941406 244.023438 C 139.394531 243.527344 139.355469 242.746094 138.820312 242.292969 C 138.652344 242.085938 138.449219 241.921875 138.242188 241.757812 Z M 131.191406 136.632812 C 130.984375 136.839844 130.820312 137.046875 130.65625 137.25 C 130.203125 137.746094 130.242188 138.53125 130.78125 138.984375 C 131.027344 139.1875 131.316406 139.3125 131.605469 139.3125 C 131.933594 139.3125 132.304688 139.1875 132.511719 138.902344 C 132.675781 138.695312 132.882812 138.488281 133.046875 138.28125 C 133.5 137.789062 133.460938 137.003906 132.964844 136.550781 C 132.429688 136.054688 131.644531 136.097656 131.191406 136.632812 Z M 126.65625 228.398438 C 126.285156 227.820312 125.503906 227.699219 124.925781 228.070312 C 124.347656 228.441406 124.226562 229.222656 124.597656 229.800781 C 124.761719 230.046875 124.925781 230.253906 125.050781 230.5 C 125.296875 230.832031 125.667969 231.039062 126.078125 231.039062 C 126.328125 231.039062 126.574219 230.957031 126.78125 230.832031 C 127.359375 230.460938 127.480469 229.675781 127.109375 229.101562 C 126.988281 228.851562 126.820312 228.648438 126.65625 228.398438 Z M 127.191406 143.476562 C 126.617188 143.066406 125.875 143.230469 125.460938 143.765625 C 125.296875 144.011719 125.132812 144.21875 124.96875 144.464844 C 124.597656 145.042969 124.71875 145.785156 125.296875 146.199219 C 125.503906 146.363281 125.75 146.402344 125.996094 146.402344 C 126.410156 146.402344 126.78125 146.199219 127.027344 145.867188 C 127.191406 145.660156 127.316406 145.414062 127.480469 145.207031 C 127.894531 144.632812 127.769531 143.847656 127.191406 143.476562 Z M 132.058594 235.40625 C 131.605469 234.871094 130.820312 234.832031 130.324219 235.285156 C 129.832031 235.738281 129.75 236.519531 130.203125 237.015625 C 130.367188 237.222656 130.574219 237.425781 130.738281 237.632812 C 130.984375 237.921875 131.316406 238.046875 131.644531 238.046875 C 131.933594 238.046875 132.222656 237.964844 132.46875 237.714844 C 132.964844 237.261719 133.046875 236.480469 132.550781 235.984375 C 132.429688 235.820312 132.222656 235.613281 132.058594 235.40625 Z M 161.449219 255.9375 C 161.203125 255.855469 160.957031 255.730469 160.707031 255.648438 C 160.089844 255.402344 159.347656 255.730469 159.101562 256.347656 C 158.851562 256.96875 159.183594 257.710938 159.800781 257.957031 C 160.050781 258.039062 160.335938 258.164062 160.585938 258.246094 C 160.707031 258.285156 160.875 258.328125 161.039062 258.328125 C 161.53125 258.328125 162.027344 258.039062 162.191406 257.542969 C 162.441406 256.886719 162.109375 256.183594 161.449219 255.9375 Z M 161.203125 116.308594 C 160.957031 116.390625 160.667969 116.515625 160.421875 116.597656 C 159.800781 116.847656 159.472656 117.546875 159.71875 118.207031 C 159.925781 118.699219 160.378906 118.988281 160.875 118.988281 C 161.039062 118.988281 161.160156 118.949219 161.328125 118.90625 C 161.574219 118.824219 161.820312 118.699219 162.070312 118.617188 C 162.730469 118.371094 163.058594 117.671875 162.8125 117.011719 C 162.5625 116.390625 161.863281 116.0625 161.203125 116.308594 Z M 169.984375 113.671875 C 169.695312 113.753906 169.449219 113.796875 169.160156 113.878906 C 168.5 114.042969 168.085938 114.703125 168.253906 115.363281 C 168.375 115.9375 168.914062 116.308594 169.449219 116.308594 C 169.53125 116.308594 169.65625 116.308594 169.738281 116.269531 C 169.984375 116.1875 170.273438 116.144531 170.519531 116.0625 C 171.179688 115.898438 171.59375 115.238281 171.425781 114.578125 C 171.261719 113.917969 170.644531 113.507812 169.984375 113.671875 Z M 153.410156 252.308594 C 153.164062 252.1875 152.917969 252.0625 152.710938 251.9375 C 152.09375 251.609375 151.351562 251.855469 151.019531 252.433594 C 150.691406 253.050781 150.9375 253.792969 151.515625 254.125 C 151.761719 254.246094 152.011719 254.371094 152.257812 254.535156 C 152.421875 254.617188 152.628906 254.660156 152.835938 254.660156 C 153.289062 254.660156 153.699219 254.410156 153.949219 254 C 154.238281 253.382812 153.988281 252.640625 153.410156 252.308594 Z M 144.960938 124.636719 C 144.714844 124.800781 144.507812 124.96875 144.261719 125.089844 C 143.683594 125.460938 143.558594 126.246094 143.929688 126.820312 C 144.175781 127.152344 144.546875 127.359375 144.960938 127.359375 C 145.207031 127.359375 145.457031 127.277344 145.660156 127.152344 C 145.867188 126.988281 146.113281 126.863281 146.320312 126.699219 C 146.898438 126.328125 147.023438 125.542969 146.652344 124.96875 C 146.320312 124.390625 145.539062 124.265625 144.960938 124.636719 Z M 152.835938 119.980469 C 152.585938 120.101562 152.339844 120.226562 152.09375 120.351562 C 151.472656 120.679688 151.269531 121.421875 151.558594 122.039062 C 151.761719 122.453125 152.214844 122.699219 152.667969 122.699219 C 152.875 122.699219 153.082031 122.660156 153.246094 122.574219 C 153.496094 122.453125 153.742188 122.328125 153.949219 122.203125 C 154.566406 121.875 154.8125 121.132812 154.484375 120.554688 C 154.152344 119.980469 153.453125 119.648438 152.835938 119.980469 Z M 169.902344 258.574219 C 169.65625 258.492188 169.367188 258.453125 169.117188 258.371094 C 168.457031 258.203125 167.800781 258.617188 167.59375 259.277344 C 167.429688 259.9375 167.839844 260.59375 168.5 260.800781 C 168.789062 260.882812 169.035156 260.925781 169.324219 261.007812 C 169.40625 261.050781 169.53125 261.050781 169.613281 261.050781 C 170.148438 261.050781 170.683594 260.679688 170.808594 260.101562 C 170.972656 259.398438 170.5625 258.742188 169.902344 258.574219 Z M 114.703125 170.851562 C 114.785156 170.890625 114.90625 170.890625 114.992188 170.890625 C 115.566406 170.890625 116.0625 170.519531 116.1875 169.941406 C 116.269531 169.695312 116.308594 169.40625 116.390625 169.160156 C 116.558594 168.5 116.144531 167.839844 115.484375 167.675781 C 114.824219 167.511719 114.167969 167.921875 114 168.582031 C 113.917969 168.871094 113.878906 169.117188 113.796875 169.40625 C 113.628906 170.023438 114.042969 170.683594 114.703125 170.851562 Z M 256.183594 162.152344 C 256.347656 162.644531 256.84375 162.976562 257.339844 162.976562 C 257.460938 162.976562 257.628906 162.933594 257.75 162.894531 C 258.410156 162.644531 258.742188 161.945312 258.492188 161.328125 C 258.410156 161.078125 258.285156 160.792969 258.203125 160.542969 C 257.957031 159.925781 257.257812 159.59375 256.597656 159.84375 C 255.976562 160.089844 255.648438 160.792969 255.894531 161.449219 C 256.019531 161.65625 256.101562 161.902344 256.183594 162.152344 Z M 113.257812 179.714844 C 113.300781 179.714844 113.339844 179.714844 113.425781 179.714844 C 114.042969 179.714844 114.578125 179.257812 114.660156 178.640625 C 114.703125 178.394531 114.742188 178.105469 114.742188 177.859375 C 114.824219 177.199219 114.371094 176.578125 113.671875 176.457031 C 113.011719 176.375 112.394531 176.828125 112.269531 177.527344 C 112.230469 177.816406 112.1875 178.0625 112.1875 178.351562 C 112.105469 179.054688 112.601562 179.628906 113.257812 179.714844 Z M 114.125 187.464844 L 114.125 187.378906 C 114.125 187.132812 114.125 186.886719 114.125 186.679688 C 114.125 185.980469 113.589844 185.441406 112.886719 185.441406 C 112.230469 185.441406 111.652344 185.980469 111.652344 186.679688 C 111.652344 186.925781 111.652344 187.175781 111.652344 187.421875 L 111.652344 187.503906 C 111.652344 188.207031 112.1875 188.742188 112.886719 188.742188 C 113.589844 188.742188 114.125 188.164062 114.125 187.464844 Z M 260.140625 178.515625 C 260.183594 178.765625 260.222656 179.054688 260.222656 179.300781 C 260.308594 179.917969 260.84375 180.414062 261.460938 180.414062 C 261.503906 180.414062 261.542969 180.414062 261.585938 180.414062 C 262.246094 180.332031 262.738281 179.714844 262.699219 179.054688 C 262.65625 178.765625 262.617188 178.515625 262.617188 178.230469 C 262.53125 177.570312 261.914062 177.074219 261.253906 177.15625 C 260.511719 177.238281 260.058594 177.859375 260.140625 178.515625 Z M 258.535156 169.820312 C 258.617188 170.066406 258.65625 170.355469 258.742188 170.601562 C 258.863281 171.179688 259.398438 171.550781 259.9375 171.550781 C 260.019531 171.550781 260.140625 171.550781 260.222656 171.507812 C 260.882812 171.34375 261.296875 170.683594 261.132812 170.023438 C 261.050781 169.738281 261.007812 169.488281 260.925781 169.199219 C 260.761719 168.542969 260.101562 168.128906 259.441406 168.292969 C 258.78125 168.5 258.371094 169.160156 258.535156 169.820312 Z M 118.617188 212.691406 C 118.371094 212.03125 117.671875 211.703125 117.011719 211.949219 C 116.351562 212.199219 116.019531 212.898438 116.269531 213.558594 C 116.351562 213.804688 116.476562 214.09375 116.558594 214.339844 C 116.761719 214.835938 117.214844 215.125 117.710938 215.125 C 117.875 215.125 118 215.082031 118.164062 215.042969 C 118.785156 214.796875 119.113281 214.09375 118.867188 213.433594 C 118.785156 213.1875 118.699219 212.941406 118.617188 212.691406 Z M 118.414062 159.140625 C 117.792969 158.894531 117.050781 159.222656 116.804688 159.84375 C 116.722656 160.089844 116.597656 160.378906 116.515625 160.625 C 116.269531 161.246094 116.597656 161.988281 117.214844 162.234375 C 117.339844 162.273438 117.503906 162.316406 117.671875 162.316406 C 118.164062 162.316406 118.660156 162.027344 118.824219 161.53125 C 118.90625 161.285156 119.03125 161.039062 119.113281 160.792969 C 119.359375 160.089844 119.070312 159.390625 118.414062 159.140625 Z M 122.164062 220.8125 C 121.832031 220.195312 121.09375 219.949219 120.515625 220.277344 C 119.9375 220.609375 119.648438 221.351562 119.980469 221.925781 C 120.101562 222.175781 120.226562 222.421875 120.351562 222.667969 C 120.554688 223.082031 121.007812 223.328125 121.460938 223.328125 C 121.667969 223.328125 121.832031 223.289062 122.039062 223.203125 C 122.660156 222.875 122.863281 222.132812 122.574219 221.515625 C 122.410156 221.265625 122.289062 221.019531 122.164062 220.8125 Z M 114.660156 196.328125 C 114.621094 196.078125 114.578125 195.789062 114.578125 195.542969 C 114.496094 194.882812 113.878906 194.390625 113.21875 194.429688 C 112.558594 194.511719 112.0625 195.132812 112.105469 195.789062 C 112.144531 196.078125 112.1875 196.328125 112.1875 196.613281 C 112.269531 197.234375 112.804688 197.6875 113.425781 197.6875 C 113.464844 197.6875 113.507812 197.6875 113.589844 197.6875 C 114.25 197.605469 114.742188 196.984375 114.660156 196.328125 Z M 122.328125 151.019531 C 121.710938 150.691406 120.96875 150.9375 120.636719 151.515625 C 120.515625 151.761719 120.390625 152.011719 120.226562 152.257812 C 119.894531 152.875 120.144531 153.617188 120.761719 153.90625 C 120.925781 153.988281 121.132812 154.03125 121.339844 154.03125 C 121.792969 154.03125 122.203125 153.78125 122.453125 153.371094 C 122.574219 153.125 122.699219 152.875 122.824219 152.667969 C 123.152344 152.09375 122.945312 151.351562 122.328125 151.019531 Z M 116.269531 205.023438 C 116.1875 204.777344 116.144531 204.488281 116.0625 204.242188 C 115.898438 203.582031 115.238281 203.167969 114.578125 203.335938 C 113.917969 203.5 113.507812 204.160156 113.671875 204.820312 C 113.753906 205.105469 113.796875 205.355469 113.878906 205.644531 C 114 206.21875 114.539062 206.589844 115.074219 206.589844 C 115.15625 206.589844 115.277344 206.589844 115.363281 206.550781 C 116.019531 206.34375 116.433594 205.683594 116.269531 205.023438 Z M 137.707031 130.203125 C 137.5 130.367188 137.292969 130.574219 137.085938 130.738281 C 136.59375 131.191406 136.550781 131.976562 137.003906 132.46875 C 137.25 132.757812 137.582031 132.882812 137.910156 132.882812 C 138.199219 132.882812 138.488281 132.800781 138.734375 132.550781 C 138.941406 132.386719 139.148438 132.179688 139.355469 132.015625 C 139.890625 131.5625 139.929688 130.78125 139.476562 130.285156 C 139.023438 129.832031 138.242188 129.75 137.707031 130.203125 Z M 249.710938 144.34375 C 249.339844 143.765625 248.558594 143.640625 247.980469 144.011719 C 247.402344 144.382812 247.28125 145.167969 247.652344 145.742188 C 247.816406 145.949219 247.941406 146.199219 248.105469 146.402344 C 248.351562 146.773438 248.722656 146.941406 249.136719 146.941406 C 249.382812 146.941406 249.628906 146.855469 249.835938 146.734375 C 250.414062 146.363281 250.535156 145.578125 250.164062 145.003906 C 250.042969 144.796875 249.878906 144.589844 249.710938 144.34375 Z M 249.421875 228.6875 C 248.847656 228.316406 248.105469 228.441406 247.691406 229.015625 C 247.527344 229.222656 247.402344 229.472656 247.238281 229.675781 C 246.828125 230.253906 246.992188 230.996094 247.527344 231.410156 C 247.734375 231.574219 247.980469 231.613281 248.226562 231.613281 C 248.597656 231.613281 249.011719 231.449219 249.257812 231.078125 C 249.421875 230.871094 249.589844 230.625 249.753906 230.378906 C 250.125 229.84375 250 229.058594 249.421875 228.6875 Z M 242.25 235.941406 C 242.085938 236.148438 241.878906 236.355469 241.714844 236.5625 C 241.261719 237.054688 241.300781 237.839844 241.796875 238.292969 C 242.042969 238.5 242.332031 238.621094 242.621094 238.621094 C 242.953125 238.621094 243.28125 238.5 243.527344 238.210938 C 243.734375 238.003906 243.898438 237.796875 244.105469 237.59375 C 244.558594 237.097656 244.519531 236.3125 243.980469 235.859375 C 243.488281 235.40625 242.703125 235.449219 242.25 235.941406 Z M 244.066406 137.167969 C 243.609375 136.675781 242.828125 136.59375 242.332031 137.046875 C 241.839844 137.5 241.757812 138.28125 242.210938 138.777344 C 242.375 138.984375 242.582031 139.1875 242.746094 139.394531 C 242.992188 139.683594 243.324219 139.808594 243.695312 139.808594 C 243.980469 139.808594 244.269531 139.726562 244.519531 139.519531 C 245.011719 139.066406 245.09375 138.28125 244.640625 137.789062 C 244.433594 137.582031 244.269531 137.375 244.066406 137.167969 Z M 235.984375 242.210938 C 235.777344 242.375 235.570312 242.582031 235.367188 242.746094 C 234.832031 243.199219 234.789062 243.980469 235.242188 244.476562 C 235.488281 244.765625 235.820312 244.890625 236.191406 244.890625 C 236.480469 244.890625 236.769531 244.804688 237.015625 244.601562 C 237.222656 244.433594 237.425781 244.230469 237.632812 244.066406 C 238.128906 243.609375 238.210938 242.828125 237.757812 242.332031 C 237.304688 241.796875 236.519531 241.757812 235.984375 242.210938 Z M 231.121094 125.542969 C 230.871094 125.378906 230.667969 125.214844 230.417969 125.050781 C 229.84375 124.679688 229.101562 124.800781 228.6875 125.378906 C 228.316406 125.957031 228.441406 126.699219 229.015625 127.109375 C 229.222656 127.277344 229.472656 127.398438 229.675781 127.5625 C 229.882812 127.730469 230.128906 127.8125 230.378906 127.8125 C 230.75 127.8125 231.160156 127.648438 231.410156 127.277344 C 231.78125 126.699219 231.65625 125.914062 231.121094 125.542969 Z M 237.632812 130.695312 C 237.140625 130.242188 236.355469 130.285156 235.902344 130.820312 C 235.449219 131.316406 235.488281 132.097656 236.027344 132.550781 C 236.230469 132.71875 236.4375 132.921875 236.644531 133.089844 C 236.890625 133.292969 237.179688 133.417969 237.46875 133.417969 C 237.796875 133.417969 238.128906 133.292969 238.375 133.003906 C 238.828125 132.511719 238.789062 131.726562 238.292969 131.273438 C 238.046875 131.066406 237.839844 130.863281 237.632812 130.695312 Z M 261.503906 195.132812 C 260.84375 195.046875 260.222656 195.542969 260.140625 196.203125 C 260.101562 196.449219 260.058594 196.738281 260.058594 196.984375 C 259.976562 197.644531 260.429688 198.265625 261.132812 198.386719 C 261.171875 198.386719 261.253906 198.386719 261.296875 198.386719 C 261.914062 198.386719 262.449219 197.933594 262.53125 197.316406 C 262.574219 197.027344 262.617188 196.78125 262.65625 196.492188 C 262.65625 195.832031 262.203125 195.214844 261.503906 195.132812 Z M 260.058594 203.996094 C 259.398438 203.828125 258.742188 204.242188 258.574219 204.902344 C 258.492188 205.148438 258.453125 205.4375 258.371094 205.683594 C 258.203125 206.34375 258.617188 207.003906 259.277344 207.210938 C 259.359375 207.25 259.484375 207.25 259.566406 207.25 C 260.101562 207.25 260.636719 206.878906 260.761719 206.304688 C 260.84375 206.015625 260.882812 205.765625 260.964844 205.476562 C 261.132812 204.820312 260.71875 204.160156 260.058594 203.996094 Z M 261.914062 186.144531 C 261.214844 186.144531 260.679688 186.722656 260.679688 187.378906 C 260.679688 187.628906 260.679688 187.917969 260.679688 188.164062 C 260.679688 188.863281 261.214844 189.402344 261.914062 189.402344 C 262.574219 189.402344 263.152344 188.863281 263.152344 188.164062 C 263.152344 187.917969 263.152344 187.628906 263.152344 187.339844 L 263.152344 187.296875 C 263.152344 186.679688 262.574219 186.144531 261.914062 186.144531 Z M 178.601562 260.140625 C 178.351562 260.101562 178.0625 260.058594 177.816406 260.058594 C 177.15625 259.976562 176.539062 260.429688 176.414062 261.132812 C 176.292969 261.832031 176.785156 262.410156 177.488281 262.53125 C 177.777344 262.574219 178.023438 262.617188 178.3125 262.65625 C 178.351562 262.65625 178.394531 262.65625 178.476562 262.65625 C 179.09375 262.65625 179.628906 262.203125 179.714844 261.585938 C 179.796875 260.84375 179.300781 260.222656 178.601562 260.140625 Z M 257.542969 212.609375 C 256.925781 212.363281 256.183594 212.691406 255.9375 213.3125 C 255.855469 213.558594 255.730469 213.804688 255.648438 214.054688 C 255.402344 214.671875 255.730469 215.414062 256.347656 215.660156 C 256.515625 215.703125 256.636719 215.742188 256.804688 215.742188 C 257.296875 215.742188 257.75 215.453125 257.957031 214.960938 C 258.039062 214.710938 258.164062 214.425781 258.246094 214.175781 C 258.492188 213.597656 258.164062 212.859375 257.542969 212.609375 Z M 253.957031 220.894531 C 253.339844 220.566406 252.597656 220.8125 252.269531 221.433594 C 252.144531 221.679688 252.019531 221.925781 251.898438 222.132812 C 251.566406 222.75 251.816406 223.492188 252.390625 223.824219 C 252.597656 223.90625 252.761719 223.988281 252.96875 223.988281 C 253.421875 223.988281 253.835938 223.742188 254.039062 223.328125 C 254.164062 223.082031 254.289062 222.832031 254.453125 222.585938 C 254.824219 221.96875 254.578125 221.226562 253.957031 220.894531 Z M 254.453125 152.175781 C 254.125 151.558594 253.382812 151.351562 252.761719 151.640625 C 252.144531 151.929688 251.9375 152.710938 252.226562 153.328125 C 252.351562 153.578125 252.472656 153.824219 252.597656 154.03125 C 252.804688 154.441406 253.257812 154.691406 253.710938 154.691406 C 253.917969 154.691406 254.082031 154.648438 254.289062 154.566406 C 254.90625 154.238281 255.152344 153.496094 254.824219 152.917969 C 254.742188 152.667969 254.578125 152.421875 254.453125 152.175781 Z M 188.246094 111.652344 C 187.957031 111.652344 187.710938 111.652344 187.421875 111.652344 L 187.296875 111.652344 C 186.597656 111.652344 186.0625 112.1875 186.0625 112.886719 C 186.0625 113.589844 186.597656 114.125 187.296875 114.125 L 187.421875 114.125 C 187.710938 114.125 187.957031 114.125 188.246094 114.125 C 188.90625 114.125 189.484375 113.589844 189.484375 112.886719 C 189.441406 112.230469 188.90625 111.652344 188.246094 111.652344 Z M 196.285156 260.140625 C 196.039062 260.183594 195.75 260.222656 195.503906 260.222656 C 194.84375 260.308594 194.347656 260.925781 194.390625 261.585938 C 194.472656 262.203125 195.007812 262.699219 195.625 262.699219 C 195.667969 262.699219 195.707031 262.699219 195.75 262.699219 C 196.039062 262.65625 196.285156 262.617188 196.574219 262.617188 C 197.234375 262.53125 197.726562 261.914062 197.644531 261.253906 C 197.5625 260.511719 196.945312 260.058594 196.285156 260.140625 Z M 197.355469 112.3125 C 197.070312 112.269531 196.820312 112.230469 196.53125 112.1875 C 195.875 112.105469 195.253906 112.601562 195.171875 113.257812 C 195.089844 113.917969 195.585938 114.539062 196.242188 114.621094 C 196.492188 114.660156 196.78125 114.703125 197.027344 114.703125 C 197.070312 114.703125 197.152344 114.703125 197.191406 114.703125 C 197.8125 114.703125 198.347656 114.25 198.429688 113.628906 C 198.511719 113.011719 198.015625 112.394531 197.355469 112.3125 Z M 204.984375 258.535156 C 204.738281 258.617188 204.449219 258.65625 204.199219 258.742188 C 203.539062 258.90625 203.128906 259.566406 203.292969 260.222656 C 203.417969 260.800781 203.953125 261.171875 204.488281 261.171875 C 204.570312 261.171875 204.695312 261.171875 204.777344 261.132812 C 205.066406 261.050781 205.3125 261.007812 205.601562 260.925781 C 206.261719 260.761719 206.675781 260.101562 206.507812 259.441406 C 206.304688 258.78125 205.644531 258.371094 204.984375 258.535156 Z M 187.464844 260.679688 L 187.421875 260.679688 C 187.175781 260.679688 186.925781 260.679688 186.679688 260.679688 C 186.019531 260.679688 185.441406 261.214844 185.441406 261.914062 C 185.441406 262.617188 185.980469 263.152344 186.679688 263.152344 C 186.925781 263.152344 187.214844 263.152344 187.464844 263.152344 L 187.503906 263.152344 C 188.207031 263.152344 188.742188 262.617188 188.742188 261.914062 C 188.742188 261.214844 188.121094 260.679688 187.464844 260.679688 Z M 178.972656 112.105469 C 178.683594 112.144531 178.433594 112.1875 178.148438 112.1875 C 177.488281 112.269531 176.992188 112.886719 177.074219 113.546875 C 177.15625 114.167969 177.691406 114.621094 178.3125 114.621094 C 178.351562 114.621094 178.394531 114.621094 178.476562 114.621094 C 178.722656 114.578125 179.011719 114.539062 179.257812 114.539062 C 179.917969 114.453125 180.414062 113.835938 180.371094 113.175781 C 180.25 112.515625 179.671875 112.023438 178.972656 112.105469 Z M 206.34375 114.042969 C 206.054688 113.960938 205.808594 113.917969 205.519531 113.835938 C 204.859375 113.671875 204.199219 114.082031 204.035156 114.742188 C 203.871094 115.402344 204.28125 116.0625 204.941406 116.226562 C 205.191406 116.308594 205.476562 116.351562 205.726562 116.433594 C 205.847656 116.476562 205.933594 116.476562 206.054688 116.476562 C 206.589844 116.476562 207.128906 116.105469 207.25 115.527344 C 207.375 114.867188 207.003906 114.207031 206.34375 114.042969 Z M 221.472656 252.269531 C 221.226562 252.390625 220.980469 252.515625 220.773438 252.640625 C 220.152344 252.96875 219.90625 253.710938 220.238281 254.289062 C 220.441406 254.699219 220.894531 254.949219 221.351562 254.949219 C 221.554688 254.949219 221.722656 254.90625 221.925781 254.824219 C 222.175781 254.699219 222.421875 254.578125 222.667969 254.453125 C 223.289062 254.125 223.492188 253.382812 223.203125 252.761719 C 222.832031 252.1875 222.09375 251.9375 221.472656 252.269531 Z M 223.328125 120.722656 C 223.082031 120.597656 222.832031 120.472656 222.585938 120.308594 C 221.96875 119.980469 221.226562 120.226562 220.894531 120.84375 C 220.566406 121.460938 220.8125 122.203125 221.433594 122.535156 C 221.679688 122.660156 221.925781 122.78125 222.132812 122.90625 C 222.339844 122.988281 222.503906 123.070312 222.710938 123.070312 C 223.164062 123.070312 223.574219 122.824219 223.78125 122.410156 C 224.152344 121.792969 223.945312 121.007812 223.328125 120.722656 Z M 229.058594 247.691406 C 228.851562 247.855469 228.605469 247.980469 228.398438 248.144531 C 227.820312 248.515625 227.699219 249.300781 228.070312 249.878906 C 228.316406 250.25 228.6875 250.414062 229.101562 250.414062 C 229.347656 250.414062 229.59375 250.332031 229.800781 250.207031 C 230.046875 250.042969 230.253906 249.878906 230.5 249.753906 C 231.078125 249.382812 231.203125 248.597656 230.832031 248.023438 C 230.378906 247.445312 229.59375 247.28125 229.058594 247.691406 Z M 213.433594 255.894531 C 213.1875 255.976562 212.941406 256.101562 212.691406 256.183594 C 212.03125 256.433594 211.703125 257.132812 211.949219 257.792969 C 212.117188 258.285156 212.609375 258.617188 213.105469 258.617188 C 213.230469 258.617188 213.394531 258.574219 213.515625 258.535156 C 213.765625 258.453125 214.054688 258.328125 214.300781 258.246094 C 214.917969 258 215.25 257.296875 215 256.636719 C 214.796875 255.976562 214.054688 255.648438 213.433594 255.894531 Z M 215.042969 116.847656 C 214.796875 116.761719 214.507812 116.640625 214.257812 116.558594 C 213.640625 116.308594 212.898438 116.640625 212.652344 117.257812 C 212.402344 117.875 212.734375 118.617188 213.351562 118.867188 C 213.601562 118.949219 213.847656 119.070312 214.09375 119.15625 C 214.257812 119.195312 214.382812 119.238281 214.546875 119.238281 C 215.042969 119.238281 215.496094 118.949219 215.703125 118.453125 C 215.992188 117.835938 215.660156 117.09375 215.042969 116.847656 Z M 215.042969 116.847656 " fill-opacity="1" fill-rule="nonzero"/></g></svg>